<svg xmlns="http://www.w3.org/2000/svg" viewBox="0 0 1600 900" preserveAspectRatio="xMidYMid slice">
  <defs>
    <linearGradient id="sky" x1="0" y1="0" x2="0" y2="1">
      <stop offset="0%" stop-color="#030616"/>
      <stop offset="55%" stop-color="#070b1f"/>
      <stop offset="100%" stop-color="#0a1128"/>
    </linearGradient>

    <radialGradient id="haze" cx="50%" cy="96%" r="70%">
      <stop offset="0%" stop-color="rgba(255, 214, 102, 0.22)"/>
      <stop offset="35%" stop-color="rgba(64, 190, 255, 0.18)"/>
      <stop offset="70%" stop-color="rgba(0,0,0,0)"/>
    </radialGradient>

    <radialGradient id="bokeh1" cx="35%" cy="75%" r="40%">
      <stop offset="0%" stop-color="rgba(255, 234, 170, 0.28)"/>
      <stop offset="45%" stop-color="rgba(255, 234, 170, 0.10)"/>
      <stop offset="100%" stop-color="rgba(255, 234, 170, 0)"/>
    </radialGradient>
    <radialGradient id="bokeh2" cx="70%" cy="72%" r="46%">
      <stop offset="0%" stop-color="rgba(120, 220, 255, 0.22)"/>
      <stop offset="48%" stop-color="rgba(120, 220, 255, 0.08)"/>
      <stop offset="100%" stop-color="rgba(120, 220, 255, 0)"/>
    </radialGradient>
    <radialGradient id="bokeh3" cx="52%" cy="78%" r="52%">
      <stop offset="0%" stop-color="rgba(167, 139, 250, 0.16)"/>
      <stop offset="55%" stop-color="rgba(167, 139, 250, 0.06)"/>
      <stop offset="100%" stop-color="rgba(167, 139, 250, 0)"/>
    </radialGradient>

    <filter id="softGlow" x="-20%" y="-20%" width="140%" height="140%">
      <feGaussianBlur stdDeviation="2" result="b"/>
      <feColorMatrix in="b" type="matrix"
        values="1 0 0 0 0
                0 1 0 0 0
                0 0 1 0 0
                0 0 0 0.85 0" result="g"/>
      <feMerge>
        <feMergeNode in="g"/>
        <feMergeNode in="SourceGraphic"/>
      </feMerge>
    </filter>

    <pattern id="windows" width="18" height="20" patternUnits="userSpaceOnUse">
      <rect width="18" height="20" fill="rgba(0,0,0,0)"/>
      <rect x="2"  y="3"  width="3" height="4" rx="0.6" fill="rgba(255, 226, 133, 0.55)"/>
      <rect x="8"  y="4"  width="3" height="4" rx="0.6" fill="rgba(255, 214, 102, 0.35)"/>
      <rect x="13" y="3"  width="3" height="4" rx="0.6" fill="rgba(210, 240, 255, 0.25)"/>
      <rect x="3"  y="12" width="3" height="4" rx="0.6" fill="rgba(255, 226, 133, 0.30)"/>
      <rect x="9"  y="13" width="3" height="4" rx="0.6" fill="rgba(255, 214, 102, 0.50)"/>
      <rect x="14" y="12" width="3" height="4" rx="0.6" fill="rgba(210, 240, 255, 0.18)"/>
    </pattern>
  </defs>

  <rect width="1600" height="900" fill="url(#sky)"/>

  <g opacity="0.65">
    <circle cx="180" cy="110" r="1" fill="#cbd5e1"/>
    <circle cx="260" cy="220" r="1" fill="#e2e8f0"/>
    <circle cx="460" cy="140" r="1" fill="#e2e8f0"/>
    <circle cx="720" cy="190" r="1" fill="#cbd5e1"/>
    <circle cx="980" cy="120" r="1" fill="#e2e8f0"/>
    <circle cx="1220" cy="210" r="1" fill="#cbd5e1"/>
    <circle cx="1410" cy="150" r="1" fill="#e2e8f0"/>
    <circle cx="1080" cy="260" r="1" fill="#cbd5e1"/>
  </g>

  <rect width="1600" height="900" fill="url(#haze)"/>
  <rect width="1600" height="900" fill="url(#bokeh1)"/>
  <rect width="1600" height="900" fill="url(#bokeh2)"/>
  <rect width="1600" height="900" fill="url(#bokeh3)"/>

  <g>
    <path d="M0 640 C 220 610, 420 620, 600 635 C 780 650, 980 650, 1200 635 C 1360 624, 1500 628, 1600 640 L1600 900 L0 900 Z" fill="#040a18" opacity="0.65"/>

    <g>
      <rect x="40"  y="520" width="86"  height="380" rx="3" fill="#040814"/>
      <rect x="150" y="560" width="62"  height="340" rx="3" fill="#050a16"/>
      <rect x="240" y="470" width="110" height="430" rx="3" fill="#040713"/>
      <rect x="380" y="540" width="70"  height="360" rx="3" fill="#050a16"/>
      <rect x="470" y="430" width="120" height="470" rx="3" fill="#040713"/>
      <rect x="620" y="520" width="76"  height="380" rx="3" fill="#050a16"/>
      <rect x="720" y="460" width="140" height="440" rx="3" fill="#040713"/>
      <rect x="890" y="540" width="72"  height="360" rx="3" fill="#050a16"/>
      <rect x="980" y="410" width="150" height="490" rx="3" fill="#040713"/>
      <rect x="1150" y="520" width="90" height="380" rx="3" fill="#050a16"/>
      <rect x="1260" y="455" width="140" height="445" rx="3" fill="#040713"/>
      <rect x="1420" y="565" width="68" height="335" rx="3" fill="#050a16"/>

      <rect x="535" y="385" width="18" height="45" fill="#050a16"/>
      <rect x="1046" y="365" width="22" height="45" fill="#050a16"/>
      <rect x="1286" y="410" width="20" height="45" fill="#050a16"/>
    </g>

    <g opacity="0.9" filter="url(#softGlow)">
      <rect x="40"  y="520" width="86"  height="380" fill="url(#windows)" opacity="0.55"/>
      <rect x="150" y="560" width="62"  height="340" fill="url(#windows)" opacity="0.5"/>
      <rect x="240" y="470" width="110" height="430" fill="url(#windows)" opacity="0.6"/>
      <rect x="380" y="540" width="70"  height="360" fill="url(#windows)" opacity="0.5"/>
      <rect x="470" y="430" width="120" height="470" fill="url(#windows)" opacity="0.62"/>
      <rect x="620" y="520" width="76"  height="380" fill="url(#windows)" opacity="0.5"/>
      <rect x="720" y="460" width="140" height="440" fill="url(#windows)" opacity="0.62"/>
      <rect x="890" y="540" width="72"  height="360" fill="url(#windows)" opacity="0.5"/>
      <rect x="980" y="410" width="150" height="490" fill="url(#windows)" opacity="0.62"/>
      <rect x="1150" y="520" width="90" height="380" fill="url(#windows)" opacity="0.5"/>
      <rect x="1260" y="455" width="140" height="445" fill="url(#windows)" opacity="0.6"/>
      <rect x="1420" y="565" width="68" height="335" fill="url(#windows)" opacity="0.48"/>
    </g>
  </g>
</svg>
